<?xml version="1.0" encoding="UTF-8"?>
<!-- Generator: Adobe Illustrator 22.0.1, SVG Export Plug-In . SVG Version: 6.00 Build 0)  -->
<svg version="1.1" id="Calque_1" xmlns="http://www.w3.org/2000/svg" xmlns:xlink="http://www.w3.org/1999/xlink" x="0px" y="0px" viewBox="0 0 567.9 72" style="enable-background:new 0 0 567.9 72;" xml:space="preserve">
<style type="text/css">
	.st0{fill:#F7F7F7;}
</style>
<title>logo_black</title>
<path class="st0" d="M11.8,68H0V5h18.7L25,34.2c1,4.8,1.7,9.7,2.2,14.5h0.2c0.4-4.9,1-9.7,1.9-14.5L35.5,5h18.6v63H42.4V48.2  c0-12.5,0.3-25,1-37.6h-0.2L30.7,68h-7.1L11.2,10.6h-0.4c0.8,12.5,1,25,1,37.6L11.8,68z"/>
<path class="st0" d="M60.5,68l15-63h15.9l14.3,63H93.1L90,52H76.2l-3.1,16H60.5z M78.1,42.8h10l-3.2-17.9c-0.6-2.9-0.8-5.8-1.2-8.7  c-0.1-1.4-0.3-2.9-0.4-4.2h-0.2c-0.2,1.4-0.3,2.8-0.4,4.2c-0.3,2.9-0.6,5.8-1.2,8.7L78.1,42.8z"/>
<path class="st0" d="M152.2,68h-13.4l-6.7-15.4c-1.1-2.6-1.9-5.2-2.4-8h-0.2c-0.5,4.2-2.4,8-4,11.8L120.2,68h-12.8l15.5-31.9  L107.9,5h13.2l6.4,14.3c1.1,2.6,2.2,5,2.3,7.9h0.3c0.3-4.1,2.3-7.8,3.9-11.5L138.4,5h13.3l-15.1,31.1L152.2,68z"/>
<path class="st0" d="M158.9,68V5h11.8v63H158.9z"/>
<path class="st0" d="M193.9,68h-11.8V5h18.7l6.3,29.2c1,4.8,1.7,9.7,2.2,14.5h0.2c0.4-4.9,1-9.7,1.8-14.5L217.6,5h18.6v63h-11.7  V48.2c0-12.5,0.3-25,1-37.6h-0.2L212.8,68h-7.1l-12.3-57.4h-0.4c0.8,12.5,1,25,1,37.6L193.9,68z"/>
<path class="st0" d="M247.2,68V5h33.1v9.2H259v15.9h19.7v9.2H259v19.4h21.3V68H247.2z"/>
<path class="st0" d="M411.6,13c-9.2,0-8.5,11-8.5,15.9v17.5c0,5.2,0.4,13.7,8.5,13.7c8.4,0,8.5-8.6,8.5-14.7V29.2  C420.1,24.1,420.3,13,411.6,13z"/>
<path class="st0" d="M486.6,14.2h-8.7v17.4h9.2c3.9-0.3,6.9-2.8,6.9-9.1C494,15.5,491.1,14.3,486.6,14.2z"/>
<path class="st0" d="M295.4,0v72h272.5V0H295.4z M340.4,14.3H319v15.9h19.6v9.2H319v19.4h21.3V68h-33.1V5h33.1L340.4,14.3z   M383.2,68h-33.6V5h11.8v53.8h21.8V68z M432.2,40.5c0,16.8-1.3,29.1-20.6,29.1S391,57.3,391,40.5v-9c0.5-16,1.8-28,20.6-28  s20.1,11.9,20.6,28V40.5z M454.8,68H443V5h11.8V68z M508.2,68h-12.9c-1.4-4-1.2-11.8-1.3-16c-0.1-3.9,0-9.2-4-10.3  c-3.2-0.9-6.6-0.8-10-0.8h-2.1V68h-11.8V5h22.3c10.2,0,17.9,3.5,17.9,15.1c0,6.9-1.8,14.1-9.7,15.2v0.2c7,0.9,9.1,5.4,9.1,11.4  c0,2.6-0.3,18.1,2.5,19.9L508.2,68z"/>
</svg>