<svg width="100" height="100" viewBox="0 0 530 327" fill="none" xmlns="http://www.w3.org/2000/svg" id="horse">
<mask id="path-1-outside-1_387_10559" maskUnits="userSpaceOnUse" x="-2.22551" y="-7.33414" width="533.675" height="338.836" fill="black">
<rect fill="white" x="-2.22551" y="-7.33414" width="533.675" height="338.836"/>
<path d="M370.645 11.8277C366.608 13.5445 362.808 18.3669 360.371 24.9179L358.464 30.0795L348.358 30.2704C339.154 30.38 315.401 32.6889 299.953 34.8696C292.831 35.8224 292.021 36.3058 284.967 43.6614C278.018 50.8191 276.035 54.7789 275.897 61.4775C275.764 67.8761 277.387 71.6105 282.581 76.8191C287.872 82.1297 293.923 84.5555 312.44 88.7396C321.401 90.7255 328.964 92.5824 329.158 92.8865C329.452 93.1926 329.3 95.69 328.84 98.5811L328.031 103.865L319.947 102.998C315.454 102.605 306.785 101.025 300.613 99.5971C290.061 97.1782 287.459 97.2244 289.003 99.9569C289.97 101.577 284.094 100.355 262.512 94.4075L244.114 89.3256L226.117 88.9531C205.922 88.5351 205.822 88.533 188.421 98.0749C184.272 100.39 177.817 102.957 174.201 103.682C164.856 105.789 146.414 107.608 127.094 108.408C103.67 109.323 98.1232 111.509 80.8019 126.854C62.0582 143.269 55.3037 145.83 30.1091 145.309C19.8092 145.195 14.5021 145.486 14.8896 146.094C15.1792 146.6 16.3686 147.125 17.5683 147.15C18.6681 147.172 24.342 148.49 30.1118 150.01C40.8557 152.833 51.5368 153.854 58.7622 152.703C62.2739 152.176 61.6637 152.663 54.1845 156.409L45.5911 160.832L52.6021 160.377C56.4075 160.156 59.3089 160.116 59.1048 160.312C58.7987 160.606 47.8389 163.379 34.7713 166.51C21.6017 169.738 10.8398 172.616 10.8316 173.016C10.7943 174.815 29.2552 176.898 48.751 177.301C68.1489 177.603 69.6507 177.534 76.5988 175.277L84.0511 172.831L81.1041 175.07C77.4428 177.995 65.7169 183.954 60.2808 185.642L56.0528 186.955L63.2616 186.604C68.2646 186.507 72.6865 185.498 77.6289 183.5L84.7874 180.748L81.2095 184.475C78.1418 187.712 73.3876 195.115 73.3545 196.715C73.3503 196.915 75.9974 194.669 79.2609 191.636C82.4243 188.601 90.7488 182.672 97.7363 178.515C110.093 171.07 110.987 171.388 101.715 179.598C97.7411 183.116 97.4308 183.61 99.6407 183.156C102.151 182.708 102.051 182.706 99.0974 185.245C97.4687 186.612 96.4462 187.691 96.944 187.801C97.3439 187.809 103.301 185.132 109.972 181.769C123.509 175.248 132.767 167.738 135.709 160.897C136.652 158.817 138.072 153.045 138.878 147.96C140.701 137.196 142.693 132.736 147.677 128.738C151.134 126.009 162.858 120.151 164.858 120.192C165.358 120.202 165.01 122.496 164.152 125.278C162.98 128.755 162.587 133.248 162.757 139.553C162.899 147.157 163.352 149.467 165.662 153.816C172.106 166.252 181.224 175.142 203.994 191.317C221.244 203.577 225.175 206.959 225.121 209.558C225.1 210.558 223.17 216.82 220.834 223.373C218.076 231.017 216.77 236.091 217.137 237.699C217.775 240.713 222.53 242.912 231.797 244.604C240.666 246.188 243.341 247.444 243.293 249.743C243.269 250.943 245.618 253.392 249.953 256.582C270.738 272.016 293.621 292.394 296.305 298.05C298.416 302.395 300.594 303.44 305.512 302.642C310.832 301.752 315.177 304.442 315.09 308.642C315.053 310.441 315.701 312.955 316.574 314.273C318.03 316.404 318.628 316.516 324.339 316.035C330.754 315.367 338 313.217 338.029 311.817C338.039 311.317 335.496 308.564 332.452 305.8C326.857 300.683 325.38 299.553 312.167 290.377C306.251 286.254 305.568 285.44 305.628 282.54C305.665 280.741 305.221 278.031 304.654 276.419C304.086 274.907 302.404 269.171 300.918 263.639C299.434 258.007 297.534 253.166 296.549 252.446C295.566 251.625 289.019 248.989 282.068 246.545C275.017 244.098 268.274 241.258 267.095 240.234C265.816 239.207 263.508 234.758 261.801 230.222C256.496 215.909 255.889 206.594 259.516 195.667C261.225 190.401 262.052 189.118 263.344 189.545C264.237 189.864 273.15 194.149 283.151 199.057C303.939 209.49 313.071 212.879 332.384 217.28L346.121 220.465L355.761 233.167C361.017 240.177 368.525 249.535 372.235 253.912C376.043 258.392 378.953 262.753 378.837 263.551C378.393 265.642 366.315 269.293 357.802 269.817C352.893 270.216 349.9 269.854 346.126 268.575C341.856 267.087 340.358 266.956 337.44 267.795C332.91 269.202 330.031 268.142 329.4 264.828C328.687 260.613 327.714 259.292 324.444 257.824C321.667 256.667 320.763 256.848 314.502 259.719C307.535 262.875 304.18 265.507 305.661 266.437C310.596 269.64 320.501 274.346 324.379 275.427C327.064 276.182 331.324 278.171 333.79 279.822C339.119 283.333 340.017 283.452 354.865 281.259C361.186 280.289 370.509 279.282 375.616 278.988L384.829 278.478L389.14 273.166C391.499 270.315 393.773 266.761 394.202 265.37C395.175 261.889 393.114 255.145 386.146 238.997C378.604 221.637 378.325 220.631 381.524 220.698C384.523 220.76 413.024 225.851 420.587 227.708C427.255 229.346 430.39 232.511 431.266 238.531C432.306 246.254 431.439 259.139 429.372 267.198C427.528 274.161 427.511 274.961 428.959 277.491C431.18 281.338 429.302 285.1 425.094 285.413C423.39 285.578 421.776 286.245 421.364 286.836C420.127 288.611 420.133 302.814 421.258 306.438C421.915 308.552 422.894 309.573 423.898 309.394C426.607 308.95 432.688 300.274 435.857 292.137C437.546 287.871 439.853 282.718 440.896 280.639C442.666 277.275 442.928 274.28 443.488 252.087C444.26 219.596 445.698 222.626 423.047 210.355C413.551 205.257 405.443 200.688 405.052 200.28C403.975 199.158 405.863 194.896 410.726 187.095C415.792 179.098 418.564 170.853 420.31 158.987C421.591 150.212 421.906 149.518 433.007 130.244C439.234 119.37 445.131 109.89 446.045 109.209C447.062 108.43 451.369 108.119 458.467 108.266C464.466 108.39 473.575 108.079 478.586 107.582L487.809 106.573L492.448 109.569C495.016 111.123 497.468 113.474 498.041 114.786C499.185 117.511 503.476 117.999 506.721 115.866C507.837 115.089 510.053 114.335 511.657 114.168C514.362 113.924 514.875 113.334 516.996 107.477C518.271 103.903 519.345 100.324 519.363 99.4243C519.495 97.9267 498.363 75.0845 484.145 61.2873C477.673 55.052 467.699 48.8442 460.051 46.2854C457.866 45.54 455.389 44.3885 454.603 43.6721C453.818 42.9557 450.635 42.0897 447.544 41.6256C444.451 41.2615 440.073 40.1706 437.69 39.3211C433.124 37.6263 433.33 37.3305 435.324 42.4728C436.083 44.489 421.182 44.3806 415.724 42.2672L413.143 41.3136L415.891 43.871C417.362 45.3017 419.439 46.4449 420.338 46.4636C421.838 46.4946 421.834 46.6946 420.518 47.4675C419.707 47.9508 416.498 48.3845 413.498 48.3224C408.397 48.3168 408.195 48.4127 409.868 49.7476C410.951 50.5702 412.836 51.3094 414.136 51.3363C417.435 51.4046 416.994 53.3958 413.693 53.4275C412.093 53.3944 411.487 53.6819 412.181 53.9963C414.857 55.152 413.039 56.0145 407.328 56.4964C404.12 56.8301 399.903 57.643 398.086 58.4056L394.756 59.837L398.266 59.4095L401.775 58.9821L398.741 60.6196C397.122 61.4863 393.776 63.7175 391.437 65.5695C389.098 67.4215 385.957 69.3569 384.347 69.8237C381.931 70.5739 382.131 70.578 385.739 70.2526C388.044 70.0003 390.754 69.5562 391.762 69.177C393.374 68.6103 393.472 68.7123 392.037 70.383C389.886 72.839 383.125 75.6997 379.226 75.619C375.527 75.5424 375.002 76.7318 377.858 78.8914C380.322 80.6427 379.402 81.6239 375.203 81.537C370.704 81.4438 369.865 83.3269 373.947 84.2116L377.232 84.9797L373.196 86.6965C369.363 88.2176 362.646 88.9787 362.673 87.679C362.679 87.379 363.707 81.199 364.956 74.0233C366.307 66.7497 367.15 59.8657 366.872 58.7597C366.499 57.4517 367.137 55.6645 368.265 54.2875C370.11 52.1253 370.212 52.0274 374.476 53.816C380.33 56.1376 383.031 56.0935 384.383 53.621C385.105 52.5357 386.934 51.1732 388.546 50.6065C391.064 49.7584 391.476 49.1668 391.545 45.8675C391.677 39.4689 392.289 38.8814 398.488 39.0098L403.987 39.1236L401.935 36.7806C400.564 35.3519 399.81 33.1359 399.855 30.9363C399.942 26.7372 397.082 19.9766 394.042 17.013C388.064 11.088 377.907 8.87736 370.645 11.8277ZM343.333 70.0749C343.708 71.283 343.783 72.4848 343.581 72.5806C343.377 72.7764 340.899 71.7249 337.928 70.2631L332.581 67.6519L337.68 67.7575C342.179 67.8506 342.873 68.165 343.333 70.0749ZM454.455 99.1809C455.442 99.8015 460.722 100.811 466.111 101.423C471.499 102.034 477.181 102.952 478.775 103.285C481.362 103.939 481.46 104.041 479.842 104.908C477.919 105.968 447.297 106.734 447.317 105.735C447.336 104.835 451.576 98.1211 452.176 98.1335C452.376 98.1377 453.465 98.6603 454.455 99.1809Z"/>
</mask>
<path d="M370.645 11.8277C366.608 13.5445 362.808 18.3669 360.371 24.9179L358.464 30.0795L348.358 30.2704C339.154 30.38 315.401 32.6889 299.953 34.8696C292.831 35.8224 292.021 36.3058 284.967 43.6614C278.018 50.8191 276.035 54.7789 275.897 61.4775C275.764 67.8761 277.387 71.6105 282.581 76.8191C287.872 82.1297 293.923 84.5555 312.44 88.7396C321.401 90.7255 328.964 92.5824 329.158 92.8865C329.452 93.1926 329.3 95.69 328.84 98.5811L328.031 103.865L319.947 102.998C315.454 102.605 306.785 101.025 300.613 99.5971C290.061 97.1782 287.459 97.2244 289.003 99.9569C289.97 101.577 284.094 100.355 262.512 94.4075L244.114 89.3256L226.117 88.9531C205.922 88.5351 205.822 88.533 188.421 98.0749C184.272 100.39 177.817 102.957 174.201 103.682C164.856 105.789 146.414 107.608 127.094 108.408C103.67 109.323 98.1232 111.509 80.8019 126.854C62.0582 143.269 55.3037 145.83 30.1091 145.309C19.8092 145.195 14.5021 145.486 14.8896 146.094C15.1792 146.6 16.3686 147.125 17.5683 147.15C18.6681 147.172 24.342 148.49 30.1118 150.01C40.8557 152.833 51.5368 153.854 58.7622 152.703C62.2739 152.176 61.6637 152.663 54.1845 156.409L45.5911 160.832L52.6021 160.377C56.4075 160.156 59.3089 160.116 59.1048 160.312C58.7987 160.606 47.8389 163.379 34.7713 166.51C21.6017 169.738 10.8398 172.616 10.8316 173.016C10.7943 174.815 29.2552 176.898 48.751 177.301C68.1489 177.603 69.6507 177.534 76.5988 175.277L84.0511 172.831L81.1041 175.07C77.4428 177.995 65.7169 183.954 60.2808 185.642L56.0528 186.955L63.2616 186.604C68.2646 186.507 72.6865 185.498 77.6289 183.5L84.7874 180.748L81.2095 184.475C78.1418 187.712 73.3876 195.115 73.3545 196.715C73.3503 196.915 75.9974 194.669 79.2609 191.636C82.4243 188.601 90.7488 182.672 97.7363 178.515C110.093 171.07 110.987 171.388 101.715 179.598C97.7411 183.116 97.4308 183.61 99.6407 183.156C102.151 182.708 102.051 182.706 99.0974 185.245C97.4687 186.612 96.4462 187.691 96.944 187.801C97.3439 187.809 103.301 185.132 109.972 181.769C123.509 175.248 132.767 167.738 135.709 160.897C136.652 158.817 138.072 153.045 138.878 147.96C140.701 137.196 142.693 132.736 147.677 128.738C151.134 126.009 162.858 120.151 164.858 120.192C165.358 120.202 165.01 122.496 164.152 125.278C162.98 128.755 162.587 133.248 162.757 139.553C162.899 147.157 163.352 149.467 165.662 153.816C172.106 166.252 181.224 175.142 203.994 191.317C221.244 203.577 225.175 206.959 225.121 209.558C225.1 210.558 223.17 216.82 220.834 223.373C218.076 231.017 216.77 236.091 217.137 237.699C217.775 240.713 222.53 242.912 231.797 244.604C240.666 246.188 243.341 247.444 243.293 249.743C243.269 250.943 245.618 253.392 249.953 256.582C270.738 272.016 293.621 292.394 296.305 298.05C298.416 302.395 300.594 303.44 305.512 302.642C310.832 301.752 315.177 304.442 315.09 308.642C315.053 310.441 315.701 312.955 316.574 314.273C318.03 316.404 318.628 316.516 324.339 316.035C330.754 315.367 338 313.217 338.029 311.817C338.039 311.317 335.496 308.564 332.452 305.8C326.857 300.683 325.38 299.553 312.167 290.377C306.251 286.254 305.568 285.44 305.628 282.54C305.665 280.741 305.221 278.031 304.654 276.419C304.086 274.907 302.404 269.171 300.918 263.639C299.434 258.007 297.534 253.166 296.549 252.446C295.566 251.625 289.019 248.989 282.068 246.545C275.017 244.098 268.274 241.258 267.095 240.234C265.816 239.207 263.508 234.758 261.801 230.222C256.496 215.909 255.889 206.594 259.516 195.667C261.225 190.401 262.052 189.118 263.344 189.545C264.237 189.864 273.15 194.149 283.151 199.057C303.939 209.49 313.071 212.879 332.384 217.28L346.121 220.465L355.761 233.167C361.017 240.177 368.525 249.535 372.235 253.912C376.043 258.392 378.953 262.753 378.837 263.551C378.393 265.642 366.315 269.293 357.802 269.817C352.893 270.216 349.9 269.854 346.126 268.575C341.856 267.087 340.358 266.956 337.44 267.795C332.91 269.202 330.031 268.142 329.4 264.828C328.687 260.613 327.714 259.292 324.444 257.824C321.667 256.667 320.763 256.848 314.502 259.719C307.535 262.875 304.18 265.507 305.661 266.437C310.596 269.64 320.501 274.346 324.379 275.427C327.064 276.182 331.324 278.171 333.79 279.822C339.119 283.333 340.017 283.452 354.865 281.259C361.186 280.289 370.509 279.282 375.616 278.988L384.829 278.478L389.14 273.166C391.499 270.315 393.773 266.761 394.202 265.37C395.175 261.889 393.114 255.145 386.146 238.997C378.604 221.637 378.325 220.631 381.524 220.698C384.523 220.76 413.024 225.851 420.587 227.708C427.255 229.346 430.39 232.511 431.266 238.531C432.306 246.254 431.439 259.139 429.372 267.198C427.528 274.161 427.511 274.961 428.959 277.491C431.18 281.338 429.302 285.1 425.094 285.413C423.39 285.578 421.776 286.245 421.364 286.836C420.127 288.611 420.133 302.814 421.258 306.438C421.915 308.552 422.894 309.573 423.898 309.394C426.607 308.95 432.688 300.274 435.857 292.137C437.546 287.871 439.853 282.718 440.896 280.639C442.666 277.275 442.928 274.28 443.488 252.087C444.26 219.596 445.698 222.626 423.047 210.355C413.551 205.257 405.443 200.688 405.052 200.28C403.975 199.158 405.863 194.896 410.726 187.095C415.792 179.098 418.564 170.853 420.31 158.987C421.591 150.212 421.906 149.518 433.007 130.244C439.234 119.37 445.131 109.89 446.045 109.209C447.062 108.43 451.369 108.119 458.467 108.266C464.466 108.39 473.575 108.079 478.586 107.582L487.809 106.573L492.448 109.569C495.016 111.123 497.468 113.474 498.041 114.786C499.185 117.511 503.476 117.999 506.721 115.866C507.837 115.089 510.053 114.335 511.657 114.168C514.362 113.924 514.875 113.334 516.996 107.477C518.271 103.903 519.345 100.324 519.363 99.4243C519.495 97.9267 498.363 75.0845 484.145 61.2873C477.673 55.052 467.699 48.8442 460.051 46.2854C457.866 45.54 455.389 44.3885 454.603 43.6721C453.818 42.9557 450.635 42.0897 447.544 41.6256C444.451 41.2615 440.073 40.1706 437.69 39.3211C433.124 37.6263 433.33 37.3305 435.324 42.4728C436.083 44.489 421.182 44.3806 415.724 42.2672L413.143 41.3136L415.891 43.871C417.362 45.3017 419.439 46.4449 420.338 46.4636C421.838 46.4946 421.834 46.6946 420.518 47.4675C419.707 47.9508 416.498 48.3845 413.498 48.3224C408.397 48.3168 408.195 48.4127 409.868 49.7476C410.951 50.5702 412.836 51.3094 414.136 51.3363C417.435 51.4046 416.994 53.3958 413.693 53.4275C412.093 53.3944 411.487 53.6819 412.181 53.9963C414.857 55.152 413.039 56.0145 407.328 56.4964C404.12 56.8301 399.903 57.643 398.086 58.4056L394.756 59.837L398.266 59.4095L401.775 58.9821L398.741 60.6196C397.122 61.4863 393.776 63.7175 391.437 65.5695C389.098 67.4215 385.957 69.3569 384.347 69.8237C381.931 70.5739 382.131 70.578 385.739 70.2526C388.044 70.0003 390.754 69.5562 391.762 69.177C393.374 68.6103 393.472 68.7123 392.037 70.383C389.886 72.839 383.125 75.6997 379.226 75.619C375.527 75.5424 375.002 76.7318 377.858 78.8914C380.322 80.6427 379.402 81.6239 375.203 81.537C370.704 81.4438 369.865 83.3269 373.947 84.2116L377.232 84.9797L373.196 86.6965C369.363 88.2176 362.646 88.9787 362.673 87.679C362.679 87.379 363.707 81.199 364.956 74.0233C366.307 66.7497 367.15 59.8657 366.872 58.7597C366.499 57.4517 367.137 55.6645 368.265 54.2875C370.11 52.1253 370.212 52.0274 374.476 53.816C380.33 56.1376 383.031 56.0935 384.383 53.621C385.105 52.5357 386.934 51.1732 388.546 50.6065C391.064 49.7584 391.476 49.1668 391.545 45.8675C391.677 39.4689 392.289 38.8814 398.488 39.0098L403.987 39.1236L401.935 36.7806C400.564 35.3519 399.81 33.1359 399.855 30.9363C399.942 26.7372 397.082 19.9766 394.042 17.013C388.064 11.088 377.907 8.87736 370.645 11.8277ZM343.333 70.0749C343.708 71.283 343.783 72.4848 343.581 72.5806C343.377 72.7764 340.899 71.7249 337.928 70.2631L332.581 67.6519L337.68 67.7575C342.179 67.8506 342.873 68.165 343.333 70.0749ZM454.455 99.1809C455.442 99.8015 460.722 100.811 466.111 101.423C471.499 102.034 477.181 102.952 478.775 103.285C481.362 103.939 481.46 104.041 479.842 104.908C477.919 105.968 447.297 106.734 447.317 105.735C447.336 104.835 451.576 98.1211 452.176 98.1335C452.376 98.1377 453.465 98.6603 454.455 99.1809Z" fill="#FF0000"/>
<path d="M370.645 11.8277C366.608 13.5445 362.808 18.3669 360.371 24.9179L358.464 30.0795L348.358 30.2704C339.154 30.38 315.401 32.6889 299.953 34.8696C292.831 35.8224 292.021 36.3058 284.967 43.6614C278.018 50.8191 276.035 54.7789 275.897 61.4775C275.764 67.8761 277.387 71.6105 282.581 76.8191C287.872 82.1297 293.923 84.5555 312.44 88.7396C321.401 90.7255 328.964 92.5824 329.158 92.8865C329.452 93.1926 329.3 95.69 328.84 98.5811L328.031 103.865L319.947 102.998C315.454 102.605 306.785 101.025 300.613 99.5971C290.061 97.1782 287.459 97.2244 289.003 99.9569C289.97 101.577 284.094 100.355 262.512 94.4075L244.114 89.3256L226.117 88.9531C205.922 88.5351 205.822 88.533 188.421 98.0749C184.272 100.39 177.817 102.957 174.201 103.682C164.856 105.789 146.414 107.608 127.094 108.408C103.67 109.323 98.1232 111.509 80.8019 126.854C62.0582 143.269 55.3037 145.83 30.1091 145.309C19.8092 145.195 14.5021 145.486 14.8896 146.094C15.1792 146.6 16.3686 147.125 17.5683 147.15C18.6681 147.172 24.342 148.49 30.1118 150.01C40.8557 152.833 51.5368 153.854 58.7622 152.703C62.2739 152.176 61.6637 152.663 54.1845 156.409L45.5911 160.832L52.6021 160.377C56.4075 160.156 59.3089 160.116 59.1048 160.312C58.7987 160.606 47.8389 163.379 34.7713 166.51C21.6017 169.738 10.8398 172.616 10.8316 173.016C10.7943 174.815 29.2552 176.898 48.751 177.301C68.1489 177.603 69.6507 177.534 76.5988 175.277L84.0511 172.831L81.1041 175.07C77.4428 177.995 65.7169 183.954 60.2808 185.642L56.0528 186.955L63.2616 186.604C68.2646 186.507 72.6865 185.498 77.6289 183.5L84.7874 180.748L81.2095 184.475C78.1418 187.712 73.3876 195.115 73.3545 196.715C73.3503 196.915 75.9974 194.669 79.2609 191.636C82.4243 188.601 90.7488 182.672 97.7363 178.515C110.093 171.07 110.987 171.388 101.715 179.598C97.7411 183.116 97.4308 183.61 99.6407 183.156C102.151 182.708 102.051 182.706 99.0974 185.245C97.4687 186.612 96.4462 187.691 96.944 187.801C97.3439 187.809 103.301 185.132 109.972 181.769C123.509 175.248 132.767 167.738 135.709 160.897C136.652 158.817 138.072 153.045 138.878 147.96C140.701 137.196 142.693 132.736 147.677 128.738C151.134 126.009 162.858 120.151 164.858 120.192C165.358 120.202 165.01 122.496 164.152 125.278C162.98 128.755 162.587 133.248 162.757 139.553C162.899 147.157 163.352 149.467 165.662 153.816C172.106 166.252 181.224 175.142 203.994 191.317C221.244 203.577 225.175 206.959 225.121 209.558C225.1 210.558 223.17 216.82 220.834 223.373C218.076 231.017 216.77 236.091 217.137 237.699C217.775 240.713 222.53 242.912 231.797 244.604C240.666 246.188 243.341 247.444 243.293 249.743C243.269 250.943 245.618 253.392 249.953 256.582C270.738 272.016 293.621 292.394 296.305 298.05C298.416 302.395 300.594 303.44 305.512 302.642C310.832 301.752 315.177 304.442 315.09 308.642C315.053 310.441 315.701 312.955 316.574 314.273C318.03 316.404 318.628 316.516 324.339 316.035C330.754 315.367 338 313.217 338.029 311.817C338.039 311.317 335.496 308.564 332.452 305.8C326.857 300.683 325.38 299.553 312.167 290.377C306.251 286.254 305.568 285.44 305.628 282.54C305.665 280.741 305.221 278.031 304.654 276.419C304.086 274.907 302.404 269.171 300.918 263.639C299.434 258.007 297.534 253.166 296.549 252.446C295.566 251.625 289.019 248.989 282.068 246.545C275.017 244.098 268.274 241.258 267.095 240.234C265.816 239.207 263.508 234.758 261.801 230.222C256.496 215.909 255.889 206.594 259.516 195.667C261.225 190.401 262.052 189.118 263.344 189.545C264.237 189.864 273.15 194.149 283.151 199.057C303.939 209.49 313.071 212.879 332.384 217.28L346.121 220.465L355.761 233.167C361.017 240.177 368.525 249.535 372.235 253.912C376.043 258.392 378.953 262.753 378.837 263.551C378.393 265.642 366.315 269.293 357.802 269.817C352.893 270.216 349.9 269.854 346.126 268.575C341.856 267.087 340.358 266.956 337.44 267.795C332.91 269.202 330.031 268.142 329.4 264.828C328.687 260.613 327.714 259.292 324.444 257.824C321.667 256.667 320.763 256.848 314.502 259.719C307.535 262.875 304.18 265.507 305.661 266.437C310.596 269.64 320.501 274.346 324.379 275.427C327.064 276.182 331.324 278.171 333.79 279.822C339.119 283.333 340.017 283.452 354.865 281.259C361.186 280.289 370.509 279.282 375.616 278.988L384.829 278.478L389.14 273.166C391.499 270.315 393.773 266.761 394.202 265.37C395.175 261.889 393.114 255.145 386.146 238.997C378.604 221.637 378.325 220.631 381.524 220.698C384.523 220.76 413.024 225.851 420.587 227.708C427.255 229.346 430.39 232.511 431.266 238.531C432.306 246.254 431.439 259.139 429.372 267.198C427.528 274.161 427.511 274.961 428.959 277.491C431.18 281.338 429.302 285.1 425.094 285.413C423.39 285.578 421.776 286.245 421.364 286.836C420.127 288.611 420.133 302.814 421.258 306.438C421.915 308.552 422.894 309.573 423.898 309.394C426.607 308.95 432.688 300.274 435.857 292.137C437.546 287.871 439.853 282.718 440.896 280.639C442.666 277.275 442.928 274.28 443.488 252.087C444.26 219.596 445.698 222.626 423.047 210.355C413.551 205.257 405.443 200.688 405.052 200.28C403.975 199.158 405.863 194.896 410.726 187.095C415.792 179.098 418.564 170.853 420.31 158.987C421.591 150.212 421.906 149.518 433.007 130.244C439.234 119.37 445.131 109.89 446.045 109.209C447.062 108.43 451.369 108.119 458.467 108.266C464.466 108.39 473.575 108.079 478.586 107.582L487.809 106.573L492.448 109.569C495.016 111.123 497.468 113.474 498.041 114.786C499.185 117.511 503.476 117.999 506.721 115.866C507.837 115.089 510.053 114.335 511.657 114.168C514.362 113.924 514.875 113.334 516.996 107.477C518.271 103.903 519.345 100.324 519.363 99.4243C519.495 97.9267 498.363 75.0845 484.145 61.2873C477.673 55.052 467.699 48.8442 460.051 46.2854C457.866 45.54 455.389 44.3885 454.603 43.6721C453.818 42.9557 450.635 42.0897 447.544 41.6256C444.451 41.2615 440.073 40.1706 437.69 39.3211C433.124 37.6263 433.33 37.3305 435.324 42.4728C436.083 44.489 421.182 44.3806 415.724 42.2672L413.143 41.3136L415.891 43.871C417.362 45.3017 419.439 46.4449 420.338 46.4636C421.838 46.4946 421.834 46.6946 420.518 47.4675C419.707 47.9508 416.498 48.3845 413.498 48.3224C408.397 48.3168 408.195 48.4127 409.868 49.7476C410.951 50.5702 412.836 51.3094 414.136 51.3363C417.435 51.4046 416.994 53.3958 413.693 53.4275C412.093 53.3944 411.487 53.6819 412.181 53.9963C414.857 55.152 413.039 56.0145 407.328 56.4964C404.12 56.8301 399.903 57.643 398.086 58.4056L394.756 59.837L398.266 59.4095L401.775 58.9821L398.741 60.6196C397.122 61.4863 393.776 63.7175 391.437 65.5695C389.098 67.4215 385.957 69.3569 384.347 69.8237C381.931 70.5739 382.131 70.578 385.739 70.2526C388.044 70.0003 390.754 69.5562 391.762 69.177C393.374 68.6103 393.472 68.7123 392.037 70.383C389.886 72.839 383.125 75.6997 379.226 75.619C375.527 75.5424 375.002 76.7318 377.858 78.8914C380.322 80.6427 379.402 81.6239 375.203 81.537C370.704 81.4438 369.865 83.3269 373.947 84.2116L377.232 84.9797L373.196 86.6965C369.363 88.2176 362.646 88.9787 362.673 87.679C362.679 87.379 363.707 81.199 364.956 74.0233C366.307 66.7497 367.15 59.8657 366.872 58.7597C366.499 57.4517 367.137 55.6645 368.265 54.2875C370.11 52.1253 370.212 52.0274 374.476 53.816C380.33 56.1376 383.031 56.0935 384.383 53.621C385.105 52.5357 386.934 51.1732 388.546 50.6065C391.064 49.7584 391.476 49.1668 391.545 45.8675C391.677 39.4689 392.289 38.8814 398.488 39.0098L403.987 39.1236L401.935 36.7806C400.564 35.3519 399.81 33.1359 399.855 30.9363C399.942 26.7372 397.082 19.9766 394.042 17.013C388.064 11.088 377.907 8.87736 370.645 11.8277ZM343.333 70.0749C343.708 71.283 343.783 72.4848 343.581 72.5806C343.377 72.7764 340.899 71.7249 337.928 70.2631L332.581 67.6519L337.68 67.7575C342.179 67.8506 342.873 68.165 343.333 70.0749ZM454.455 99.1809C455.442 99.8015 460.722 100.811 466.111 101.423C471.499 102.034 477.181 102.952 478.775 103.285C481.362 103.939 481.46 104.041 479.842 104.908C477.919 105.968 447.297 106.734 447.317 105.735C447.336 104.835 451.576 98.1211 452.176 98.1335C452.376 98.1377 453.465 98.6603 454.455 99.1809Z" stroke="white" stroke-width="20" mask="url(#path-1-outside-1_387_10559)"/>
</svg>
