{
	"asset":{
		"version":"2.0",
		"generator":"Created using the official Cinema 4D glTF Exporter 1.000x284978",
		"copyright":""
	},
	"scenes":[{
		"nodes":[0]
	}],
	"nodes":[{
		"name":"Scene 0.1",
		"mesh":0
	}],
	"meshes":[{
		"name":"Scene 0.1",
		"primitives":[{
			"attributes":{
				"POSITION":1,
				"NORMAL":2,
				"TEXCOORD_0":3
			},
			"indices":0
		}]
	}],
	"accessors":[{
		"bufferView":0,
		"type":"SCALAR",
		"componentType":5123,
		"count":1206,
		"byteOffset":0,
		"min":[0],
		"max":[1205]
	},
	{
		"bufferView":1,
		"type":"VEC3",
		"componentType":5126,
		"count":1206,
		"byteOffset":0,
		"min":[-12.365208625793457,
		-0.04355335235595703,
		-15.975860595703125],
		"max":[12.36520767211914,
		5.86121129989624,
		15.975860595703125]
	},
	{
		"bufferView":1,
		"type":"VEC3",
		"componentType":5126,
		"count":1206,
		"byteOffset":12,
		"min":[-1.0,
		-1.0,
		-1.0],
		"max":[1.0,
		1.0,
		1.0]
	},
	{
		"bufferView":1,
		"type":"VEC2",
		"componentType":5126,
		"count":1206,
		"byteOffset":24,
		"min":[0.018052538856863977,
		0.018052536994218828],
		"max":[0.9675582051277161,
		0.9819474220275879]
	}],
	"bufferViews":[{
		"buffer":0,
		"byteOffset":0,
		"byteLength":2412,
		"target":34963
	},
	{
		"buffer":0,
		"byteOffset":2412,
		"byteLength":38592,
		"target":34962,
		"byteStride":32
	}],
	"buffers":[{
		"uri":"data:application/octet-stream;base64,",
		"byteLength":41004
	}]
}